# xmcd
#
# Track frame offsets:
#	150
#	19500
#	44550
#	62225
#	82425
#	99975
#	125368
#	145373
#	172023
#	193633
#	218728
#	242280
#
# Disc length: 3563 seconds
#
# Revision: 1
# Processed by: cddbd v1.4PL0 Copyright (c) Steve Scherf et al.
# Submitted via: EasyCDDAExtractor 5.0.7
#
DISCID=aa0de90c
DTITLE=Tuan Anh - Ruou Dang Tinh Cay
DYEAR=1900
DGENRE=
TTITLE0=Thuo ay co em
TTITLE1=Tinh say
TTITLE2=Cuoc tinh da mat
TTITLE3=Cho nguoi tinh lo
TTITLE4=Noi sau khuon nguoi 
TTITLE5=Con gi nua dau
TTITLE6=Con dau tinh ai
TTITLE7=Lay troi con duoc binh yen
TTITLE8=Tiec thuong
TTITLE9=Tinh lo
TTITLE10=Yeu nhau cho nhau
TTITLE11=Nhu giot suong khuya
EXTD=
EXTT0=
EXTT1=
EXTT2=
EXTT3=
EXTT4=
EXTT5=
EXTT6=
EXTT7=
EXTT8=
EXTT9=
EXTT10=
EXTT11=
PLAYORDER=
